<svg width="216" height="215" viewBox="0 0 216 215" fill="none" xmlns="http://www.w3.org/2000/svg">
<path d="M0.696579 148.264C1.61795 149.227 3.31508 149.82 5.1501 149.818L56.5785 149.818C58.4275 149.82 60.1357 149.22 61.0527 148.245L143.338 60.8513C144.221 59.9 144.221 58.7375 143.338 57.7862L91.9092 1.6044C91.0052 0.618011 89.2945 0.00468445 87.4349 1.52588e-05L36.0065 1.52588e-05C33.1663 1.52588e-05 30.8636 1.39723 30.8636 3.12103C30.8636 3.65182 31.0868 4.17415 31.5116 4.63794L81.5311 59.3034L0.675842 145.149C-0.232513 146.115 -0.224792 147.302 0.696579 148.264Z" fill="#EF0E0E"/>
<path d="M215.303 66.1359C214.382 65.1726 212.685 64.5804 210.85 64.5815H159.422C157.573 64.5798 155.864 65.1802 154.947 66.1546L72.6625 153.549C71.7792 154.5 71.7792 155.662 72.6625 156.614L124.091 212.795C124.995 213.782 126.705 214.395 128.565 214.4H179.993C182.834 214.4 185.136 213.003 185.136 211.279C185.136 210.748 184.913 210.226 184.488 209.762L134.469 155.097L215.324 69.2508C216.233 68.2846 216.225 67.0977 215.303 66.1359Z" fill="#EF0E0E"/>
</svg>
